<svg xmlns="http://www.w3.org/2000/svg" class="Layer_1" data-name="Layer 1" viewBox="236.93 188.42 245.51 272.23">   <path fill="black" d="M391.64,459.64c-26.12-34.71-28-58.94-24.41-75,5.38-23.9,23.68-31.16,32-58,8.55-27.59,1.16-54.32-6-72,27.71,32.4,31.74,57.12,30,74-2.77,26.84-21.56,38.46-30,75A146,146,0,0,0,391.64,459.64Z"></path>   <path fill="black" d="M430.29,460.65c-17.15-17.2-19.67-30.07-18.71-38.7,2.4-21.71,27.5-28,43.71-56.3,11.21-19.58,12.46-39.81,12-53,18.84,34.66,17,54.79,11,67-9.14,18.61-29.47,22.5-41.41,48.25A74.5,74.5,0,0,0,430.29,460.65Z"></path>   <path fill="black" d="M236.93,302.83A78.75,78.75,0,0,1,267.71,251q3.5,9.27,7,18.55-4.35,4-8.79,8Q251.35,290.65,236.93,302.83Z"></path>   <path fill="black" d="M379.72,243.77a82.56,82.56,0,0,0-76.8,15.08l-7.92-19a96.64,96.64,0,0,1,23.29-6.53C346.28,229.12,369,238.44,379.72,243.77Z"></path>   <polygon fill="black" points="311.17 299.74 275.31 269.74 303.1 259.5 309 269.89 329.14 305.13 311.17 299.74"></polygon>   <path fill="black" d="M273.6,204.6,267.72,251l27.34-11.39q-1.35-5.84-2.71-11.66l-9.21-39.53Z"></path>   <path fill="black" d="M303.1,259.5c-4.57,8.67-12.47,13.94-20.15,13.25a16.58,16.58,0,0,1-8.26-3.21q-3.49-9.27-7-18.55c1.25-1.86,7-10,17.37-11.67a23.94,23.94,0,0,1,9.93.5,13.6,13.6,0,0,1,9.27,16.85,13.76,13.76,0,0,1-1.18,2.83Z"></path> </svg>